<svg id="Layer_1" data-name="Layer 1" xmlns="http://www.w3.org/2000/svg" viewBox="0 0 1535.86 1151.9"><defs><style>.cls-1,.cls-8{fill:#ff5d10;}.cls-2,.cls-3,.cls-7{fill:#fff;}.cls-2,.cls-3{stroke:#231f20;stroke-width:8.75px;}.cls-2,.cls-6{stroke-miterlimit:10;}.cls-3,.cls-4,.cls-8{stroke-linecap:round;stroke-linejoin:round;}.cls-4{fill:none;}.cls-4,.cls-8{stroke:#241f20;stroke-width:8.75px;}.cls-5{fill:#00aff4;}.cls-6{fill:#00ac43;stroke:#00ac43;stroke-width:7px;}</style></defs><path class="cls-1" d="M1118.29,904.46l2.1,32.44s-13.61,42.9-37.67,75.33-88.93,87.18-94.17,94.5-19.36,12-19.36,12H144l-8.37-20.4L145,1072.2l-3.14-29.3,1-476.09-5.23-31.39s65.91-49.17,114-75.33S398,395.21,398,395.21l469.17,4.72,248-1.58,7.85,20.41,44.15,14.39L1154.55,876.2,1112,890.86Z"/><polygon class="cls-2" points="1488.08 951.41 1488.08 1041.93 1413.64 1120.4 1116.34 1041.93 1041.91 758.29 1116.34 679.82 1272.32 679.82 1272.32 770.35 1346.2 770.35 1346.2 860.88 1416.18 860.88 1416.18 951.41 1488.08 951.41"/><polygon class="cls-2" points="1413.64 1029.88 1413.64 1120.4 1041.91 1120.4 1041.91 758.29 1197.89 758.29 1197.89 848.82 1271.77 848.82 1271.77 939.35 1341.75 939.35 1341.75 1029.88 1413.64 1029.88"/><polyline class="cls-3" points="1041.91 758.29 1197.89 758.29 1197.89 848.82 1271.77 848.82 1271.77 939.35 1341.75 939.35 1341.75 1029.88 1413.64 1029.88 1413.64 1120.4"/><line class="cls-3" x1="1197.89" y1="758.29" x2="1272.32" y2="679.82"/><line class="cls-3" x1="1197.89" y1="848.82" x2="1272.32" y2="770.35"/><line class="cls-3" x1="1271.77" y1="848.82" x2="1346.2" y2="770.35"/><line class="cls-3" x1="1271.77" y1="939.35" x2="1346.2" y2="860.88"/><line class="cls-3" x1="1341.75" y1="939.35" x2="1416.18" y2="860.88"/><line class="cls-3" x1="1341.75" y1="1029.88" x2="1416.18" y2="951.41"/><line class="cls-3" x1="1413.64" y1="1029.88" x2="1488.08" y2="951.41"/><line class="cls-3" x1="1488.08" y1="1041.93" x2="1413.64" y2="1120.4"/><path class="cls-4" d="M969.19,1118.76s14.13-4.71,19.36-12"/><path class="cls-2" d="M1053.42,327.66s-23.57,10.1-27.35,22.5c-2.56,8.39,4.33,33.58.41,43.78l-4.63,20.6a11.42,11.42,0,0,1-13.3,8.7h0a11.41,11.41,0,0,1-9.25-11.54l.06-2.05a14.29,14.29,0,0,0-14.49-14.71l-34.3.49a3.56,3.56,0,0,1-3.11-5.38,47,47,0,0,1,5.25-7.1c4.08-4.58,19.42-6.85,29.66-7.88a5.7,5.7,0,0,0,4.47-8.29c-3.92-7.75-8.08-21.79-4.31-43.47,6.28-36.1,31.39-60.42,31.39-60.42"/><path class="cls-5" d="M1101.74,432.39l24.4,39.73c31.39,58.07,30.17,108,27,133.12-.78,6.21-.6,10.13-1.35,14a29.42,29.42,0,0,0,7.71,1.87c8.44.93,17.81-3.75,24.37-2.82,14.06.94,29.06,15.94,45.93,5.63,4.78-3,10-6.28,14.32-10.19l-6.57-61.54-11-138.12c-2.44-57-13.34-91.2-28.52-115.51"/><path class="cls-4" d="M1237.58,552.17l-11-138.12c-2.44-57-13.34-91.2-28.52-115.51"/><path class="cls-5" d="M1148.12,246.11c-43.26-37.85-109.87-34.53-109.87-34.53s-23.54-4.71-34.53,34.53,25,67.49,25,67.49l73,118.79a98,98,0,0,0,32.48-18.46c34.84-30,62-70.46,63.85-115.39-14.08-22.53-31.83-36.58-50-52.43"/><path class="cls-4" d="M1038.25,211.58s-23.54-4.71-34.53,34.53,25,67.49,25,67.49l73,118.79a98,98,0,0,0,32.48-18.46"/><path class="cls-6" d="M1183.9,618.27c-6.56-.93-15.93,3.75-24.37,2.82h-.08a7.43,7.43,0,0,0-8.3,6.7c-.17,1.94-.39,4-.74,6.25-3.1,19.8-20.23,16.35-25.46,23-6.81,8.69-7.34,14.78-7.14,23.52a10.4,10.4,0,0,0,10,10.13l6.08.27c26.15,0,25.71-4.6,34.65-14.13l22-23.44.09,6.52a24.75,24.75,0,0,1-4,14,40,40,0,0,0-5.78,30.5h0a1.92,1.92,0,0,0,1.88,1.52h25.51a24,24,0,0,0,23.19-17.79l11.14-41.43a76.27,76.27,0,0,0,2.19-27.93h0a2.79,2.79,0,0,0-4.46-1.93c-3.38,2.55-7,4.82-10.41,7C1213,634.21,1198,619.21,1183.9,618.27Z"/><path class="cls-4" d="M1118,673.28a61.49,61.49,0,0,0-.17,7.28,10.4,10.4,0,0,0,10,10.14l6.08.27c26.15,0,25.71-4.6,34.65-14.13l14.16-12.92"/><path class="cls-4" d="M1180.79,704.46h0a1.92,1.92,0,0,0,1.88,1.52h25.51a24,24,0,0,0,23.19-17.79l11.14-41.43a76.27,76.27,0,0,0,2.19-27.93l-.55-5.12c-4.37,3.91-9.54,7.15-14.32,10.19-16.87,10.31-31.87-4.69-45.93-5.63-6.56-.93-15.93,3.75-24.37,2.82a29.42,29.42,0,0,1-7.71-1.87"/><path class="cls-4" d="M1156.61,436.88l27.29,181.39,1.44,7.65a89.9,89.9,0,0,1-4,48c-3.31,8.88-6.25,19.19-6.25,27.76"/><path class="cls-1" d="M137.68,536.51,27.78,668.42s3.14,9.42,11,11,803.36,31.29,803.36,31.29L969.19,542.75"/><polyline class="cls-4" points="141.87 1042.9 145.01 1072.2 135.59 1098.36 143.96 1118.76 969.19 1118.76"/><polyline class="cls-4" points="137.68 535.42 969.19 542.75 966.58 574.14 961.35 1049.18 969.19 1074.29 963.44 1095.22 969.19 1118.76"/><path class="cls-4" d="M137.68,535.42l817.22,7.21A13.26,13.26,0,0,1,968,557l-1.43,17.15-5.24,475,7.85,25.11-5.75,20.93,5.75,23.54"/><path class="cls-4" d="M137.68,536.51,27.78,668.42s3.14,9.42,11,11,803.36,3.14,803.36,3.14L969.19,542.75"/><polyline class="cls-1" points="973.9 553.74 1054.06 696.67 1189.23 569.21 1121.44 401.49"/><line class="cls-4" x1="1116.34" y1="421.5" x2="969.19" y2="542.75"/><polyline class="cls-4" points="973.9 553.74 1054.06 696.67 1189.23 569.21 1121.44 401.49"/><line class="cls-4" x1="398.01" y1="395.21" x2="398.01" y2="536.47"/><line class="cls-4" x1="1023.27" y1="142.59" x2="1053.42" y2="84.52"/><line class="cls-4" x1="988.56" y1="128.72" x2="995.22" y2="32.73"/><path class="cls-7" d="M1053.79,290.05l31.09,77.69-27.31,50.94a79.35,79.35,0,0,1-31,32.08c-8.6,4.8-14.25,12.13-21.24,19.86-6.16,6.82,2.17,36,2.17,36l2-.95a9.56,9.56,0,0,1,13.48,7l4.13,23.76c15.7-.79,20-10.88,30.61-23.55s-.79-33-.79-33,77-58.75,91-101.23c10.28-31.11-12.38-93.4-21.93-120.9"/><path class="cls-5" d="M1053.79,290.05l10.88,27.19c12.14-19,29.58-34.25,53.62-39.23a52.16,52.16,0,0,1,15.26-.14c-5-14.33-9.13-23.92-9.13-23.92Z"/><path class="cls-4" d="M1007.49,506.65s-8.33-29.21-2.17-36c7-7.73,12.64-15.06,21.24-19.86a79.35,79.35,0,0,0,31-32.08l27.31-50.94-31.09-77.69"/><path class="cls-4" d="M1124.42,254s35.32,81.62,23.54,124.78-91,101.23-91,101.23,11.4,20.3.79,33-14.91,22.76-30.61,23.55"/><circle class="cls-2" cx="992.74" cy="228.84" r="60.69"/><line class="cls-4" x1="961.34" y1="1049.18" x2="934" y2="1041.93"/><line class="cls-4" x1="969.19" y1="1074.29" x2="996.78" y2="1049.18"/><line class="cls-4" x1="963.44" y1="1095.22" x2="923.53" y2="1095.22"/><line class="cls-4" x1="145.01" y1="1072.2" x2="172.07" y2="1061.74"/><line class="cls-4" x1="135.59" y1="1098.36" x2="158.54" y2="1098.36"/><polygon class="cls-7" points="765.89 1017.2 319.5 1024.42 305.82 755.15 742.83 738.55 765.89 1017.2"/><polyline class="cls-8" points="331.37 787.53 340.18 786.27 340.01 776.42 349.25 774.41 277.62 710.24 276.05 719.26 263.49 721.62 263.75 733.78 254.38 738.55 327.97 797.78"/><polyline class="cls-8" points="782.8 726.98 734.14 782.96 730.31 773.02 718.97 771.45 718.8 759.76 707.99 756.99 756.64 704.48 759.61 713.72 770.77 714.95 769.72 725.23"/><polyline class="cls-8" points="726.56 999.55 782.8 1045.55 785.38 1035.44 797.19 1030.94 795.14 1017.67 808.17 1012.11 740.68 964.24 737.13 972.73 726.68 976.57 728.25 987.02"/><polyline class="cls-8" points="337 1002.82 349.25 1004.89 348.64 1015.38 361.19 1019.95 296.06 1066.97 295.14 1055.92 285.07 1054.48 282.72 1046.11 272.52 1042.9 335.3 987.78"/><line class="cls-4" x1="147.06" y1="679.82" x2="147.06" y2="778.93"/></svg>