<svg id="Layer_1" data-name="Layer 1" xmlns="http://www.w3.org/2000/svg" xmlns:xlink="http://www.w3.org/1999/xlink" viewBox="0 0 1920.74 1156.48"><defs><style>.cls-1,.cls-4{fill:none;}.cls-2{fill:#fef7b8;}.cls-3,.cls-6,.cls-7{fill:#fff;}.cls-3{stroke:#231f20;stroke-width:8.75px;}.cls-10,.cls-15,.cls-18,.cls-3,.cls-4,.cls-5,.cls-6,.cls-8,.cls-9{stroke-linecap:round;stroke-linejoin:round;}.cls-10,.cls-15,.cls-18,.cls-4,.cls-5,.cls-6,.cls-8,.cls-9{stroke:#241f20;stroke-width:8.75px;}.cls-5{fill:#fffaa4;}.cls-13,.cls-8{fill:#00ad43;}.cls-16,.cls-9{fill:#00b0f5;}.cls-10,.cls-11{fill:#00aff4;}.cls-12{fill:#ff5d10;}.cls-14,.cls-15{fill:#f9000a;}.cls-17{fill:url(#New_Pattern_Swatch_1);}.cls-18,.cls-19{fill:#fff9a3;}</style><pattern id="New_Pattern_Swatch_1" data-name="New Pattern Swatch 1" width="144" height="144" patternTransform="translate(-2455.69 -465.74) rotate(10.8) scale(0.88)" patternUnits="userSpaceOnUse" viewBox="0 0 144 144"><rect class="cls-1" width="144" height="144"/><rect class="cls-2" width="144" height="144"/></pattern></defs><polygon class="cls-3" points="1818.92 1038.13 124.4 1038.13 244.5 156.47 1698.82 156.47 1818.92 1038.13"/><rect class="cls-3" x="795.25" y="317.91" width="334.4" height="376.01"/><polyline class="cls-4" points="776.15 468.71 1101.16 468.71 1101.16 447.28"/><polygon class="cls-4" points="690.84 877.48 468.52 877.48 468.52 422.71 690.84 394.29 690.84 877.48"/><line class="cls-5" x1="468.52" y1="422.71" x2="690.84" y2="394.29"/><path class="cls-4" d="M795.25,336.82v-16a15.89,15.89,0,0,1,13.33-15.68L933,284.93a66.61,66.61,0,0,1,10.65-.86h36.25a66.36,66.36,0,0,1,10.53.84l125.91,20.26a15.87,15.87,0,0,1,13.36,15.68v16"/><line class="cls-6" x1="978.02" y1="404.87" x2="942.27" y2="404.87"/><line class="cls-6" x1="445.98" y1="584.14" x2="561.42" y2="584.14"/><line class="cls-6" x1="445.98" y1="525.21" x2="578.82" y2="525.21"/><path class="cls-3" d="M634.48,443.84h0a35.34,35.34,0,0,1,35.34,35.34v55.69a0,0,0,0,1,0,0H599.13a0,0,0,0,1,0,0V479.18A35.34,35.34,0,0,1,634.48,443.84Z"/><polygon class="cls-3" points="414.17 880.33 912.14 880.33 912.14 723.79 414.17 730.58 414.17 880.33"/><path class="cls-7" d="M613,751.86H798.83V712.79H422.3c-9,11-16.22,18.27-16.22,27.22"/><rect class="cls-4" x="779.39" y="529.42" width="307.54" height="59.54"/><path class="cls-3" d="M749.35,657.59c0,80.92-17.93,133-42.73,133s-44.9-52-44.9-133,20.11-160.1,44.9-160.1S749.35,576.66,749.35,657.59Z"/><rect class="cls-3" x="618.21" y="577.41" width="386.6" height="116.51"/><line class="cls-4" x1="698.28" y1="680.79" x2="1008.03" y2="680.79"/><line class="cls-6" x1="618.21" y1="577.41" x2="1004.82" y2="577.41"/><rect class="cls-3" x="518.5" y="693.92" width="453.19" height="186.41"/><rect class="cls-4" x="551.24" y="761.84" width="183.18" height="76.68" rx="17.89"/><path class="cls-4" d="M854.15,729.1h0A55.9,55.9,0,0,1,910,785v96.36a0,0,0,0,1,0,0H798.25a0,0,0,0,1,0,0V785A55.9,55.9,0,0,1,854.15,729.1Z"/><rect class="cls-3" x="1004.82" y="488.79" width="317" height="162.76"/><path class="cls-3" d="M1187.35,518.42h82.07a13.82,13.82,0,0,1,13.82,13.82v95.88a0,0,0,0,1,0,0H1180.11a6.58,6.58,0,0,1-6.58-6.58V532.24A13.82,13.82,0,0,1,1187.35,518.42Z"/><path class="cls-3" d="M1050.21,518.42h82.48A13.61,13.61,0,0,1,1146.29,532v96.09a0,0,0,0,1,0,0h-109.7a0,0,0,0,1,0,0V532A13.61,13.61,0,0,1,1050.21,518.42Z"/><rect class="cls-3" x="1233.3" y="584.14" width="283.71" height="296.19"/><rect class="cls-4" x="1268.99" y="651.55" width="79.52" height="148.82"/><rect class="cls-4" x="1255.43" y="800.37" width="93.08" height="20.99"/><path class="cls-4" d="M1460.27,584.14h28.37a0,0,0,0,1,0,0v19.18a14.19,14.19,0,0,1-14.19,14.19h0a14.19,14.19,0,0,1-14.19-14.19V584.14A0,0,0,0,1,1460.27,584.14Z"/><path class="cls-4" d="M1488.64,584.14H1517a0,0,0,0,1,0,0v19.18a14.19,14.19,0,0,1-14.19,14.19h0a14.19,14.19,0,0,1-14.19-14.19V584.14A0,0,0,0,1,1488.64,584.14Z"/><path class="cls-3" d="M1238.63,570.22h276.31a15.54,15.54,0,0,1,15.54,15.54v0a5.26,5.26,0,0,1-5.26,5.26H1228.35a5.26,5.26,0,0,1-5.26-5.26v0a15.54,15.54,0,0,1,15.54-15.54Z"/><line class="cls-8" x1="1238.63" y1="570.22" x2="1514.94" y2="570.22"/><line class="cls-4" x1="1304.78" y1="880.33" x2="226.38" y2="880.33"/><polyline class="cls-4" points="971.69 693.92 971.69 715.59 518.5 715.59 518.5 693.92"/><polyline class="cls-3" points="943.91 799.08 943.91 651.55 1233.3 651.55 1233.3 880.33"/><polygon class="cls-3" points="1233.3 651.55 943.91 651.55 926.13 732.24 1233.3 732.24 1233.3 651.55"/><line class="cls-9" x1="926.13" y1="732.24" x2="1210.03" y2="732.24"/><line class="cls-4" x1="943.91" y1="651.55" x2="1207.77" y2="651.55"/><path class="cls-6" d="M939.61,810.87c0,.25,0,.51,0,.77a15.86,15.86,0,0,1-.17,2.3,14.57,14.57,0,0,1-.18-2.3c0-.26,0-.52,0-.77Z"/><path class="cls-6" d="M998.67,810.87c0,.25,0,.51,0,.77a15.86,15.86,0,0,1-.17,2.3,14.57,14.57,0,0,1-.18-2.3c0-.26,0-.52,0-.77Z"/><path class="cls-6" d="M1116.83,811.64a14.57,14.57,0,0,1-.18,2.3,14.57,14.57,0,0,1-.18-2.3c0-.26,0-.52,0-.77h.32C1116.82,811.12,1116.83,811.38,1116.83,811.64Z"/><path class="cls-6" d="M939.63,811.64a15.86,15.86,0,0,1-.17,2.3,14.57,14.57,0,0,1-.18-2.3c0-.26,0-.52,0-.77a15.13,15.13,0,0,1,.16-1.54,15.16,15.16,0,0,1,.15,1.54C939.63,811.12,939.63,811.38,939.63,811.64Z"/><path class="cls-6" d="M969.16,811.64c0,.78-.35.78-.35,0,0-.26,0-.52,0-.77a15.13,15.13,0,0,1,.16-1.54,15.16,15.16,0,0,1,.15,1.54C969.16,811.12,969.16,811.38,969.16,811.64Z"/><path class="cls-6" d="M969.14,810.87c0,.25,0,.51,0,.77,0,.78-.35.78-.35,0,0-.26,0-.52,0-.77a15.13,15.13,0,0,1,.16-1.54A15.16,15.16,0,0,1,969.14,810.87Z"/><path class="cls-6" d="M998.69,811.64a15.86,15.86,0,0,1-.17,2.3,14.57,14.57,0,0,1-.18-2.3c0-.26,0-.52,0-.77a15.13,15.13,0,0,1,.16-1.54,15.16,15.16,0,0,1,.15,1.54C998.69,811.12,998.69,811.38,998.69,811.64Z"/><path class="cls-6" d="M998.69,811.64a15.86,15.86,0,0,1-.17,2.3,14.57,14.57,0,0,1-.18-2.3c0-.26,0-.52,0-.77a15.13,15.13,0,0,1,.16-1.54,15.16,15.16,0,0,1,.15,1.54C998.69,811.12,998.69,811.38,998.69,811.64Z"/><path class="cls-10" d="M1057.76,811.64a15,15,0,0,1-.18,2.33,15,15,0,0,1-.18-2.33c0-.26,0-.51,0-.77,0-.53.08-1,.16-1.56.08.51.13,1,.16,1.56C1057.75,811.13,1057.76,811.38,1057.76,811.64Z"/><path class="cls-10" d="M1057.76,811.64a15,15,0,0,1-.18,2.33,15,15,0,0,1-.18-2.33c0-.26,0-.51,0-.77,0-.53.08-1,.16-1.56.08.51.13,1,.16,1.56C1057.75,811.13,1057.76,811.38,1057.76,811.64Z"/><path class="cls-10" d="M1175.88,811.64c0,.13,0,.26,0,.39,0-.13,0-.26,0-.39s0-.25,0-.38C1175.88,811.39,1175.88,811.51,1175.88,811.64Z"/><path class="cls-10" d="M1175.88,810.87c0,.13,0,.26,0,.39,0-.13,0-.26,0-.39Z"/><path class="cls-10" d="M1205.73,811.26c0,.13,0,.25,0,.38s0,.26,0,.39c0-.13,0-.26,0-.39S1205.72,811.39,1205.73,811.26Z"/><path class="cls-10" d="M1205.74,810.87c0,.13,0,.26,0,.39,0-.13,0-.26,0-.39Z"/><path class="cls-10" d="M1175.88,811.64c0,.13,0,.26,0,.39,0-.13,0-.26,0-.39s0-.25,0-.38C1175.88,811.39,1175.88,811.51,1175.88,811.64Z"/><path class="cls-10" d="M1175.88,811.64c0,.13,0,.26,0,.39,0-.13,0-.26,0-.39s0-.25,0-.38C1175.88,811.39,1175.88,811.51,1175.88,811.64Z"/><path class="cls-10" d="M1205.74,811.64c0,.13,0,.26,0,.39,0-.13,0-.26,0-.39s0-.25,0-.38C1205.74,811.39,1205.74,811.51,1205.74,811.64Z"/><path class="cls-3" d="M1235.6,811.64a14.82,14.82,0,0,1-2.3,8v60.74H909.88V813.65a14.92,14.92,0,0,1,14.81-17c7.47,0,13.65,4.12,14.76,11.28a12.51,12.51,0,0,1,5-8.33,16.47,16.47,0,0,1,9.77-2.95A14.94,14.94,0,0,1,969,809.33c-.07.5-.12,1-.15,1.54,0,.25,0,.51,0,.77,0,.79.35.79.35,0,0-.26,0-.52,0-.77a15.13,15.13,0,0,0-.16-1.54,14.94,14.94,0,0,1,29.53,0c-.07.5-.12,1-.15,1.54,0,.25,0,.51,0,.77a15.76,15.76,0,0,0,.17,2.3,14.47,14.47,0,0,0,.18-2.3c0-.26,0-.52,0-.77a15.13,15.13,0,0,0-.16-1.54,14.95,14.95,0,0,1,29.54,0,14.95,14.95,0,0,1,29.53,0c-.08.51-.13,1-.16,1.56,0,.26,0,.51,0,.77a15,15,0,0,0,.18,2.33,15,15,0,0,0,.18-2.33c0-.26,0-.51,0-.77,0-.53-.08-1-.16-1.56a14.95,14.95,0,0,1,29.53,0,14.95,14.95,0,0,1,29.54,0,15.13,15.13,0,0,0-.16,1.54c0,.25,0,.51,0,.77a14.47,14.47,0,0,0,.18,2.3,15.76,15.76,0,0,0,.17-2.3c0-.26,0-.52,0-.77a15.16,15.16,0,0,0-.15-1.54,14.94,14.94,0,0,1,29.52,0,14.94,14.94,0,0,1,29.69,1.51c0,.13,0,.26,0,.39s0,.25,0,.38,0,.26,0,.39c0-.13,0-.26,0-.39s0-.25,0-.38,0-.26,0-.39a14.94,14.94,0,0,1,29.84,0c0,.13,0,.26,0,.39s0,.25,0,.38,0,.26,0,.39c0-.13,0-.26,0-.39s0-.25,0-.38,0-.26,0-.39a14.94,14.94,0,0,1,29.86.77Z"/><path class="cls-10" d="M1205.74,811.64c0,.13,0,.26,0,.39,0-.13,0-.26,0-.39s0-.25,0-.38C1205.74,811.39,1205.74,811.51,1205.74,811.64Z"/><path class="cls-6" d="M1116.83,811.64a14.57,14.57,0,0,1-.18,2.3,14.57,14.57,0,0,1-.18-2.3c0-.26,0-.52,0-.77,0-.53.09-1,.16-1.54.07.5.13,1,.16,1.54C1116.82,811.12,1116.83,811.38,1116.83,811.64Z"/><path class="cls-10" d="M1057.76,811.64a15,15,0,0,1-.18,2.33,15,15,0,0,1-.18-2.33c0-.26,0-.51,0-.77h.32C1057.75,811.13,1057.76,811.38,1057.76,811.64Z"/><line class="cls-6" x1="969.04" y1="809.33" x2="969.04" y2="880.34"/><line class="cls-6" x1="998.62" y1="869.26" x2="998.62" y2="880.34"/><line class="cls-6" x1="1028.2" y1="842.38" x2="1028.2" y2="880.34"/><line class="cls-6" x1="1057.78" y1="809.33" x2="1057.78" y2="880.34"/><line class="cls-6" x1="1087.36" y1="809.33" x2="1087.36" y2="880.34"/><line class="cls-6" x1="1116.94" y1="809.33" x2="1116.94" y2="840.04"/><line class="cls-6" x1="1116.94" y1="861.36" x2="1116.94" y2="879.23"/><line class="cls-6" x1="1146.52" y1="809.33" x2="1146.52" y2="880.33"/><line class="cls-6" x1="1205.68" y1="809.33" x2="1205.68" y2="880.34"/><path class="cls-6" d="M1116.83,811.64a14.57,14.57,0,0,1-.18,2.3,14.57,14.57,0,0,1-.18-2.3c0-.26,0-.52,0-.77,0-.53.09-1,.16-1.54.07.5.13,1,.16,1.54C1116.82,811.12,1116.83,811.38,1116.83,811.64Z"/><circle class="cls-3" cx="853.98" cy="781.54" r="24.53"/><polyline class="cls-4" points="922.26 404.87 1101.27 404.87 1101.27 448.79 988.47 448.79"/><polyline class="cls-4" points="820.44 448.79 779.39 448.79 779.39 404.87 926.13 404.87"/><line class="cls-4" x1="1146.29" y1="628.12" x2="1094.85" y2="628.12"/><line class="cls-4" x1="1233.3" y1="591.03" x2="1517.01" y2="591.03"/><line class="cls-4" x1="798.25" y1="880" x2="798.25" y2="785"/><line class="cls-4" x1="883.02" y1="449.23" x2="902.65" y2="449.23"/><rect class="cls-3" x="776.15" y="447.28" width="328.4" height="21.43"/><line class="cls-8" x1="1517.01" y1="666.21" x2="1517.01" y2="880.33"/><path class="cls-11" d="M1185.42,270.24a220.5,220.5,0,0,0,35.11,30.52s-11.85,7.25-14.84,18.45,11.9,34,42.42,15.88,14.14-75.57,9.67-81.06c-2.41-3-13.12-16.05-22.44-27.43-15,7.78-28.91,18.79-40.32,29.81C1190.46,260.06,1187.55,264.87,1185.42,270.24Z"/><path class="cls-12" d="M1292.57,136.15c14.63-38.95-6.54-30.68-6.54-30.68s-73.82,16.87-105,71c-16.78,29.14-3.42,62.9,12.48,87.86,3-4.91,6.78-9.13,11.91-11.9,13.19-8.81,28.79-17.18,45-22.15l-11.35-20.43S1278,175.1,1292.57,136.15Z"/><path class="cls-4" d="M1222.64,300.59s-13,5-17.9,15.51,5.65,35.55,38.9,23.2,27.4-71.84,24-78-28.53-51.43-28.53-51.43,38.86-34.73,53.48-73.68-6.54-30.68-6.54-30.68"/><rect class="cls-13" x="991.45" y="202.26" width="539.91" height="94.6" transform="translate(-20.9 345.03) rotate(-15.45)"/><line class="cls-4" x1="988.6" y1="275.88" x2="1509" y2="132.06"/><line class="cls-4" x1="1019.15" y1="267.44" x2="1034.16" y2="321.74"/><line class="cls-4" x1="1095.91" y1="246.23" x2="1110.92" y2="300.53"/><line class="cls-4" x1="1172.67" y1="225.01" x2="1187.68" y2="279.31"/><line class="cls-4" x1="1249.43" y1="203.8" x2="1264.44" y2="258.1"/><line class="cls-4" x1="1326.19" y1="182.58" x2="1341.2" y2="236.88"/><line class="cls-4" x1="1402.95" y1="161.37" x2="1417.96" y2="215.67"/><line class="cls-4" x1="1479.71" y1="140.15" x2="1494.72" y2="194.46"/><line class="cls-4" x1="1044.59" y1="260.41" x2="1052.1" y2="287.56"/><line class="cls-4" x1="1067.46" y1="254.09" x2="1074.96" y2="281.24"/><line class="cls-4" x1="1122.86" y1="238.78" x2="1130.36" y2="265.93"/><line class="cls-4" x1="1145.73" y1="232.46" x2="1153.23" y2="259.61"/><line class="cls-4" x1="1200.26" y1="217.39" x2="1207.77" y2="244.54"/><line class="cls-4" x1="1223.13" y1="211.07" x2="1230.64" y2="238.22"/><line class="cls-4" x1="1276.81" y1="196.23" x2="1284.32" y2="223.38"/><line class="cls-4" x1="1299.68" y1="189.91" x2="1307.19" y2="217.06"/><line class="cls-4" x1="1354.22" y1="174.84" x2="1361.72" y2="201.99"/><line class="cls-4" x1="1384.59" y1="195.67" x2="1377.09" y2="168.52"/><line class="cls-4" x1="1430.77" y1="153.68" x2="1438.27" y2="180.83"/><line class="cls-4" x1="1453.64" y1="147.36" x2="1461.14" y2="174.51"/><path class="cls-14" d="M1286.57,478.87c4.45,4.44,10.67-.89,15.12-6.23,0,3.56,2.66,7.12,2.66,10.67,16.89-10.67,32.9-2.67,48.9,5.34,6.22,3.55,11.56-1.78,17.78-3.56,4.44-.89,9.78-2.67,12.45-6.22a44.47,44.47,0,0,0,5.17-5l-4.51-142.38,15.58-52.25a116.64,116.64,0,0,1-28.69,8.47c-42.67,7.11-86.23,10.67-125.35-7.11-1.39-.52-2.86-1.19-4.37-1.93l.59,46.59V463.51s-.32.35-.86,1C1256.93,461.11,1273.59,466.57,1286.57,478.87Z"/><path class="cls-7" d="M1383.48,478.87c-2.67,3.55-8,5.33-12.45,6.22-6.22,1.78-11.56,7.11-17.78,3.56-16-8-32-16-48.9-5.34,0-3.55-2.66-7.11-2.66-10.67-4.45,5.34-10.67,10.67-15.12,6.23-13-12.3-29.64-17.76-45.53-14.39-4.65,5.27-26.93,31.06-29.21,43.72-2.55,14.14-2.24,24,33,26l46.57-16.55s.18,25.83,15.56,31.12,20.26,9,47.54-9,23.52-23.18,35.43-26.9l-1.24-39A44.47,44.47,0,0,1,1383.48,478.87Z"/><path class="cls-12" d="M1371,287.73a116.64,116.64,0,0,0,28.69-8.47l23-77L1343.4,86.19l-99,38-4,84.85.88,69.69c1.51.74,3,1.41,4.37,1.93C1284.8,298.4,1328.36,294.84,1371,287.73Z"/><polyline class="cls-4" points="1388.61 472.53 1384.14 331.51 1422.67 202.3 1330.78 86.19"/><path class="cls-4" d="M1211.83,508.2c-2.55,14.14,6.56,27,33,26s46.57-16.55,46.57-16.55-.28,27.41,15.56,31.12c35.07,8.2,70.95-25.92,76.11-31.51a24.2,24.2,0,0,0,5.52-10"/><polyline class="cls-4" points="1240.43 200.1 1241.9 325.28 1241.9 463.51"/><path class="cls-4" d="M1241.33,280.14s73,25.83,148.56-2"/><path class="cls-11" d="M1427.71,278.3A62,62,0,0,0,1401.26,262a72.68,72.68,0,0,0-20.36-2.52c-1,1.45-2,2.79-2.94,4-11.47,14.16-32.52,43.89-8.06,72.88,19.49,21.26,49.11-2.47,47.62-19.61S1403,302.08,1403,302.08,1414.21,292.5,1427.71,278.3Z"/><path class="cls-12" d="M1401.26,262c10.06,3,16.36,12.35,23.78,19.91,26-27.3,63.06-75.25,42.5-101.43-31.26-39.8-142.16-80-142.4-80.67l77.93,115.75s-11.43,28.28-22.17,43.92A72.68,72.68,0,0,1,1401.26,262Z"/><path class="cls-4" d="M1369.9,336.3c-24.46-29-3.41-58.72,8.06-72.88s25.11-47.91,25.11-47.91"/><path class="cls-4" d="M1467.54,180.43c31.26,39.8-64.55,121.65-64.55,121.65"/><circle class="cls-11" cx="1305.56" cy="92.37" r="58.08"/><path class="cls-4" d="M1305.56,150.45A58,58,0,0,1,1258.92,127"/><path class="cls-4" d="M1258.92,127a58.07,58.07,0,1,1,96.56-4.91"/><polyline class="cls-4" points="1291.36 517.61 1302.43 483.58 1302.43 343.85"/><path class="cls-15" d="M1241.9,463.51s20.41-7.72,33.18,7.17,27.35,0,27.35,0"/><path class="cls-15" d="M1302.43,483.58s23.25-10.92,39.56,0,42,4.39,46.52-14.18"/><path class="cls-4" d="M1378,263.42s34.68-6.74,44,20.8"/><path class="cls-3" d="M219,1062.72H84.69l122.05-930c0-23.78,29.19-43,65.2-43s65.2,19.27,65.2,43.05Z"/><path class="cls-4" d="M206.74,132.69c0-23.78,29.19-43,65.2-43s65.2,19.27,65.2,43.05"/><polyline class="cls-4" points="337.14 132.69 219 1062.72 84.69 1062.72"/><path class="cls-3" d="M218.71,1060.7c0,24.61-30,44.57-66.89,44.57s-66.89-20-66.89-44.57,29.94-44.58,66.89-44.58"/><path class="cls-4" d="M132.53,1053.29c-4.77,4.72-2.16,10.83,5.82,13.65,10,3.52,22.92,1.6,28.89-4.3,7.45-7.37,3.38-16.91-9.1-21.32-15.6-5.5-35.81-2.5-45.13,6.72-11.65,11.51-5.29,26.43,14.22,33.31,24.38,8.6,56,3.9,70.51-10.5,0,0,25.74-27.47-8.12-46.82"/><path class="cls-3" d="M1661.66,86.82c36.72,0,66.48,19.65,66.48,43.89,0,.66,120.8,932,120.8,932H1715.28s-120.1-931.35-120.1-932c0-24.24,29.76-43.89,66.48-43.89"/><path class="cls-4" d="M1848.94,1062.72H1715.28s-120.1-931.35-120.1-932c0-24.24,29.76-43.89,66.48-43.89"/><path class="cls-4" d="M1661.66,86.82c36.72,0,66.48,19.65,66.48,43.89"/><path class="cls-3" d="M1782.18,1018c36.86,0,66.74,19.73,66.74,44.06s-29.88,44.06-66.74,44.06-66.73-19.72-66.73-44.06"/><path class="cls-7" d="M1595.14,401.79s-17.58-19.12-35.16-7.17-20.93,45.34-8.37,57.1,21-6.65,28.91-11.67S1595.14,401.79,1595.14,401.79Z"/><path class="cls-11" d="M1602.92,357.79,1321,779.58l-13.6,100.48,84.1-51.9,290.44-431.32s21.07-25.63,22.55-36.91-7.5-36-31.53-46.91c-16.1-7.29-30.49-6.08-42,1.75a41.87,41.87,0,0,0-15.52,20.52A89.19,89.19,0,0,1,1602.92,357.79Z"/><path class="cls-4" d="M1602.92,357.79s9.75,12.1,44.52,21.6,34.48,17.45,34.48,17.45"/><path class="cls-4" d="M1654.79,434.42c-51.12-1.79-82-31.5-82-31.5"/><path class="cls-4" d="M1312.81,839.92s21.83-4.46,33.23,16.28"/><path class="cls-4" d="M1321,779.58s30.13-13.52,29.25-13.56-1.78,33.49-1.78,33.49L1379,781l-2.74,37.44,31.27-14"/><line class="cls-4" x1="1593.43" y1="417.35" x2="1366.08" y2="751.79"/><line class="cls-4" x1="1576.05" y1="500.93" x2="1396.29" y2="772.39"/><circle class="cls-14" cx="1519.38" cy="470.56" r="61.43"/><path class="cls-4" d="M1519.38,409.13a61.43,61.43,0,1,1-39.61,108.38"/><path class="cls-16" d="M1602.55,842.48c-14-4-19,7-29,14-1,1-4,0-5,0-13,5-23,23-39,17-11.17-4.3-18.65-21.13-30.69-18.17A20.54,20.54,0,0,1,1485.07,874a123.12,123.12,0,0,1-25.16,6.07c-19,2.16-18.81,28-18.81,28s34.56,20.1,69,25.68c29.29,4.74,53.58-22.33,53.58-22.33,16,4.19,21.21,4.14,32.28,3.08A21.15,21.15,0,0,0,1615,895c.74-9.77,1.76-23.34,2.94-39.06C1613.62,850.4,1609.84,844.47,1602.55,842.48Z"/><path class="cls-17" d="M1628.27,606c-35.7,30.21-86.94,40.71-133.38,37.13l4,211q0,.58,0,1.17c12-3,19.52,13.87,30.69,18.17,16,6,26-12,39-17,1,0,4,1,5,0,10-7,15-18,29-14,7.29,2,11.07,7.92,15.4,13.44,4.84-64.58,12.3-165.55,13.55-190.11C1627.57,634,1629.09,620.34,1628.27,606Z"/><path class="cls-14" d="M1665.53,490.12c-2.84-12-7.88-26.79-16.3-44.74l-18.86,30.33c-.44.72-.92,1.41-1.4,2.07,11.67,8.26,20.71,18.85,25.9,32.2a111.81,111.81,0,0,1,5.8,19.54A57.17,57.17,0,0,0,1665.53,490.12Z"/><path class="cls-13" d="M1629,477.78c-9.49,13.16-25.49,16.34-42.63,15l-.26,0c-24.15-2.18-48.3,4.15-67.71,18.67L1496,520.7c-19.41,11.8-41.62,80.64-49,96.82,4,16.43,16.73,32.86,32.76,36a187.7,187.7,0,0,0,14.8-28.27l.34,17.85c46.44,3.58,97.68-6.92,133.38-37.13a113.37,113.37,0,0,0-1.7-14.31,34.28,34.28,0,0,1,15.17-35l-.88-5.37a57.13,57.13,0,0,0,19.81-21.82,111.81,111.81,0,0,0-5.8-19.54C1649.68,496.63,1640.64,486,1629,477.78Z"/><path class="cls-14" d="M1447,617.52c-1,2.18-1.54,3.42-1.54,3.42-20.67,30.44-38,25.35-38,25.35s-18.13-9.65-32.81,7.8c-21.45,25.48-.24,45.52-.24,45.52s56.87-14.6,79.2-21.41c9.87-3,19-13.67,26.11-24.65C1463.72,650.38,1451,634,1447,617.52Z"/><path class="cls-4" d="M1651.63,450.68c-.76-1.75-1.56-3.51-2.4-5.3"/><path class="cls-4" d="M1619.05,841.2c4.79-64.23,11.29-152.63,12.45-175.39.74-14.36-4.42-28.72-5.16-41.82-2.76-48.69,3.29-56.2,20.6-72.32l4.59-4.27"/><path class="cls-4" d="M1499.59,848.72A29.14,29.14,0,0,1,1478.81,876a111.37,111.37,0,0,1-18.9,4.06c-10.05,1.14-14.73,8.92-16.91,16a15.13,15.13,0,0,0,7.18,17.6c11.24,6.26,41.31,13,69,17.07,29.36,4.27,44.57-19.33,44.57-19.33,14.81,3.86,18.86,4.13,29.64,3.3a23.63,23.63,0,0,0,21.81-21.78c1-12.68,2.33-30.93,3.88-51.71"/><path class="cls-4" d="M1374.44,699.61l79.2-21.41a41.91,41.91,0,0,0,27.19-23l13.72-29.91,5,223.44"/><path class="cls-4" d="M1496,520.7c-16.17,9.83-29.19,58.43-40.31,83.61a47.51,47.51,0,0,1-8,12.5"/><path class="cls-4" d="M1579.33,486s35.77,21.81,69.9-40.57"/><line class="cls-4" x1="1563.72" y1="911.39" x2="1576.05" y2="711.02"/><path class="cls-4" d="M1803.13,1055.3c4.77,4.71,2.16,10.82-5.83,13.64-10,3.52-22.91,1.6-28.88-4.3-7.46-7.37-3.38-16.91,9.1-21.32,15.6-5.5,35.81-2.49,45.13,6.72,11.65,11.52,5.28,26.43-14.22,33.31-24.38,8.6-56,3.9-70.51-10.49,0,0-25.74-27.47,8.12-46.82"/><line class="cls-6" x1="518.5" y1="715.59" x2="518.5" y2="880.22"/><path class="cls-18" d="M542.23,387.38S559.65,355.6,570,357.19c15.55,2.4,35.17,18.38,30.91,48.74s-51.41,68.27-84.85,69.68"/><path class="cls-11" d="M492.84,512.89V491.14l47.55-48.95L492.84,332.08l-61.9,7.33s-59.33,22.9-73.84,64.8c-7.08,20.45-7.33,58.61-5.68,94.23,16.85,7.64,33.15,17,51.05,22.39C432.63,529.44,464.85,525.68,492.84,512.89Z"/><path class="cls-11" d="M356.47,671.83c6,4,8,12,14,14,21,5,39-8,60-4,6,2,14,7,17,2,10-18,27.09-25.76,45.37-29.25V512.89c-28,12.79-60.21,16.55-90.37,7.94-17.9-5.37-34.2-14.75-51.05-22.39,1.72,37.35,5.52,71.91,5.68,80.29.41,21.92-.13,25.59-4.8,90C354.3,668.45,355.69,671.05,356.47,671.83Z"/><path class="cls-7" d="M528.93,689.81c-7.79-18-36.09-32.27-36.09-32.27v-3c-18.28,3.49-35.37,11.26-45.37,29.25-3,5-11,0-17-2-21-4-39,9-60,4-6-2-8-10-14-14-.78-.78-2.17-3.38-4.17-3.06-1,13.12-2.08,28.74-3.4,47.56,0,0,33.7,29.83,51.09,32.27s50.31-13.19,50.31-13.19L449,716.33l67,7.53S536.72,707.84,528.93,689.81Z"/><path class="cls-4" d="M357.1,578.73c.48,25.3-.32,26.28-7.28,124.55A25.44,25.44,0,0,0,359.36,725c11.37,9,29.4,22,40.63,23.59,8.56,1.2,20.88-2,31.18-5.51A26.45,26.45,0,0,0,449,716.33h0l53.42,6c12.42,1.39,24.32-6.3,27.47-18.39a21.27,21.27,0,0,0-1-14.13c-7.79-18-36.09-32.27-36.09-32.27V491.14l47.55-48.95L492.84,332.08l-61.9,7.33s-59.33,22.9-73.84,64.8"/><path class="cls-12" d="M400,240.44,624.31,629.17l74.39,50.1-8.27-87L461.88,193.05s-12.08-26.75-20.46-32.33-31.51-8.14-49.55,6.66c-12.08,9.92-16.75,21.81-15.06,34A37,37,0,0,0,387,221.76,78.69,78.69,0,0,1,400,240.44Z"/><path class="cls-4" d="M400,240.44s13.42-3,34.56-26.86,27.33-20.53,27.33-20.53"/><path class="cls-4" d="M424,282s35.67-12.91,57.09-52.76"/><path class="cls-4" d="M669,659.25s5-19.06,25.92-20"/><path class="cls-4" d="M624.31,629.17s1.06-29.2.68-28.52,25.88,14.52,25.88,14.52l-2.79-31.47,28.63,16.83,1.12-30.29"/><line class="cls-4" x1="443.53" y1="271.28" x2="619.91" y2="582.51"/><line class="cls-4" x1="503.04" y1="317.77" x2="648.07" y2="566.61"/><path class="cls-11" d="M429.47,477.83c12.2-8.95,25.72-11.28,38.42-17.22L430.11,418.9l-77.19,15.25c0,19.18,29,44.71,59.72,63.76A62,62,0,0,1,429.47,477.83Z"/><path class="cls-19" d="M550,454.77c-22.09-7-77,11.49-77,11.49l-5.11-5.65c-12.7,5.94-26.22,8.27-38.42,17.22a62,62,0,0,0-16.83,20.08c20.62,12.78,42,22.64,56,25.71a240.78,240.78,0,0,0,58.91-24,20.29,20.29,0,0,1,17.59-1.46,100.64,100.64,0,0,1,14.75,7.07,20.26,20.26,0,0,0,27.79-6.62c.25-.41.5-.84.75-1.27C599,478.89,572.09,461.75,550,454.77Z"/><path class="cls-4" d="M352.92,434.15c13,54.13,80.93,81.82,115.69,89.47a240.78,240.78,0,0,0,58.91-24,20.29,20.29,0,0,1,17.59-1.46,100.64,100.64,0,0,1,14.75,7.07,20.26,20.26,0,0,0,27.79-6.62c.25-.41.5-.84.75-1.27C599,478.89,572.09,461.75,550,454.77s-77,11.49-77,11.49L420.11,418.9"/><circle class="cls-19" cx="450.3" cy="330.2" r="59.55"/><path class="cls-4" d="M401.29,364a59.55,59.55,0,1,1,72.19,21"/><path class="cls-4" d="M437.47,546.57l-3.91,130S451.1,692.41,449,716.33"/><path class="cls-4" d="M1545.62,497.06s26.11-10.37,48.72-7"/></svg>