<svg id="Layer_1" data-name="Layer 1" xmlns="http://www.w3.org/2000/svg" viewBox="0 0 1150.64 862.98"><defs><style>.cls-1{fill:#fff9a3;}.cls-2{fill:#fff;}.cls-10,.cls-2,.cls-4{stroke:#231f20;stroke-width:8.75px;}.cls-10,.cls-14,.cls-16,.cls-17,.cls-2,.cls-4,.cls-8{stroke-linecap:round;stroke-linejoin:round;}.cls-10,.cls-11,.cls-12,.cls-15,.cls-16,.cls-17,.cls-2,.cls-8,.cls-9{fill-rule:evenodd;}.cls-3{fill:#f9000a;}.cls-10,.cls-14,.cls-16,.cls-4{fill:none;}.cls-11,.cls-5{fill:#00a850;}.cls-6,.cls-8,.cls-9{fill:#ff5d10;}.cls-12,.cls-7{fill:#17b5ef;}.cls-8{stroke:#ff5d10;stroke-width:8.75px;}.cls-13,.cls-15,.cls-17{fill:#00aff4;}.cls-14,.cls-16,.cls-17{stroke:#241f20;stroke-width:7px;}.cls-18{fill:#241f20;}</style></defs><path class="cls-1" d="M430.78,382.56l-.11.21-.06.1-.11.15-.44.64-.95,1.35-2,2.8L423,393.54l-8.45,11.62-8.45,11.71q-4.24,5.85-8.42,11.75C386.47,444.33,375.49,460.08,365,476s-20.52,31.86-29.8,47.95S317.36,556.17,310,572.39a290.61,290.61,0,0,0-17.2,48.5,182.18,182.18,0,0,0-4.35,23.64,143.07,143.07,0,0,0-.73,22.75q.33,5.55,1.18,11A95.77,95.77,0,0,0,291.16,689a98.82,98.82,0,0,0,3.44,10.49,95.28,95.28,0,0,0,4.65,10.3,100.54,100.54,0,0,0,6,10,115.94,115.94,0,0,0,7.22,9.74c2.63,3.18,5.41,6.33,8.45,9.35,1.47,1.55,3.08,3,4.63,4.51s3.21,3,4.92,4.37A195.11,195.11,0,0,0,352.31,764l5.82,3.72c1,.63,1.92,1.22,2.9,1.8s1.94,1.19,2.92,1.74c3.93,2.28,7.94,4.36,12,6.33A137.69,137.69,0,0,0,456.54,790a160.24,160.24,0,0,0,27.94-6.8c18.43-6.21,36.11-15.7,52.57-27.15a302.16,302.16,0,0,0,23.85-18.57c7.68-6.6,15-13.61,22.17-20.85a440.67,440.67,0,0,0,39.45-46.79,517.08,517.08,0,0,0,33.32-51.57c5-8.93,9.82-18,14.28-27.19q3.38-6.9,6.47-13.91,1.53-3.51,3-7c1-2.33,1.95-4.74,2.78-7l0,0a5.25,5.25,0,0,1,9.86,3.6,3.64,3.64,0,0,1-.25.57c-2.41,4.77-4.74,9.34-7.23,13.93s-4.89,9.15-7.38,13.7c-5,9.08-10.09,18.09-15.35,27-10.49,17.84-21.49,35.38-33.24,52.46A608.47,608.47,0,0,1,591,723.9c-6.72,8-13.78,15.69-21.1,23.21s-15,14.72-23,21.66c-16,13.8-33.54,26.38-53,36.46a213.56,213.56,0,0,1-30.5,13,195.64,195.64,0,0,1-33,7.91,189.3,189.3,0,0,1-34.55,1.91c-5.82-.18-11.63-.66-17.42-1.39S367,825,361.24,823.82s-11.4-2.59-17-4.22c-1.41-.39-2.79-.83-4.19-1.25s-2.79-.85-4.17-1.31-2.78-.9-4.14-1.39l-4-1.48A260.22,260.22,0,0,1,296,799.83c-2.63-1.36-5.21-2.9-7.82-4.37s-5.17-3.08-7.71-4.77c-5.12-3.26-10.13-6.86-15.05-10.68a180.6,180.6,0,0,1-27.57-26.5A176.67,176.67,0,0,1,201.87,683a207.51,207.51,0,0,1-6.05-38.7c-.39-6.42-.52-12.8-.44-19.12s.4-12.59,1-18.77c2.15-24.78,7.46-48.32,14.44-70.71a449.75,449.75,0,0,1,25.7-64,545.86,545.86,0,0,1,33.25-58.25A592.52,592.52,0,0,1,308.8,360.2q5.26-6.33,10.65-12.55c3.65-4.1,7.28-8.22,11.06-12.23s7.59-8,11.52-11.95c2-2,4-3.92,6-5.88l3.14-3,3.53-3.24a51.92,51.92,0,0,1,80.14,64.08Z"/><path class="cls-2" d="M516,321.1l2,90.59S419.22,530.43,412.48,519.23s-25-51.41-6.14-90.86C421,397.66,441,382.22,468.46,357.65"/><path class="cls-2" d="M227.82,345.7s37.91-67.73,111.76-118l88.69-3.79-62.52,77.27S303.16,385.72,227.82,345.7Z"/><circle class="cls-3" cx="273.45" cy="119.16" r="47.7"/><circle class="cls-4" cx="847.71" cy="97.52" r="48.69"/><circle class="cls-5" cx="392.22" cy="68.64" r="17.86"/><circle class="cls-6" cx="956.67" cy="251.08" r="17.86"/><circle class="cls-7" cx="218.61" cy="220.19" r="19.83"/><circle class="cls-7" cx="621.63" cy="340.45" r="17.23"/><path class="cls-8" d="M612.83,238c-28-113.32-114.55-102.81-115.8-102.65C536.11,107.54,582.51,89,635.49,92.25a14.19,14.19,0,0,1,13.32,13.85C649.29,129.05,645.88,180.47,612.83,238Z"/><path class="cls-2" d="M612.83,238c-31,54-89,110.31-193.15,156.7-56.68-10.23-67.79-73.23-67.79-73.23S403.58,202,497,135.39h0C498.28,135.23,584.88,124.72,612.83,238Z"/><path class="cls-9" d="M372.8,280.37s10.25,31.21,34.27,55.77,59.18,34.78,59.18,34.78l-43.18,23.82S390.48,389,374,371.31s-22.12-49.8-22.12-49.8Z"/><path class="cls-10" d="M374,278.73s29.05,85.34,98.13,89.74"/><circle class="cls-6" cx="756.41" cy="195.41" r="14.67"/><path class="cls-10" d="M594.59,191s31.13-28.06,50.3-87.23a6.35,6.35,0,0,0-7.78-8.08c-42.58,11.87-85.62,51.76-85.62,51.76"/><path class="cls-11" d="M822.89,557.13c0-.16,0-.32,0-.47s.28-.51.42-.77Z"/><path class="cls-12" d="M880.11,458c-2.12,6.62-2.34,12-3.1,18.86-.6,5.48-4.33,8.43-9.4,10.34-6.33,2.38-9.32,2.18-15.32-.74-6.22-3-10.24-4.39-16.92-1.13-12.24,6-3.16,12.56,1.17,21,1.27,2.45,2.57,5.68.85,8.16-3.09,4.5-8,2.61-12,2.27-9-.78-12.88,14.44-7.76,20.18,3,3.32,9,4.92,10.17,9.58,1.39,5.39-4.72,5.81-4.89,10.18a88.9,88.9,0,0,1-8.76,13.67c-4.77,6.07-9.62,12-11.07,19.75-1.33,7.12.24,16.71.92,24.07.83,9,3.86,21.05,13.11,24.37,4.29,1.54,9.42,1.65,14,1.25,6.83-.59,8.49-5.1,14.18-7.39,2.61-1,8-.9,10.31,1.16s2.28,6.94,2.88,9.81c2.23,10.63,2.87,23.15.26,33.79-2.28,9.26-12.74,12.7-14.93,22.12s-2.25,17.26-1,26.84c.51,3.95,1.59,7.86,2,11.84a187.53,187.53,0,0,1-40.83,23.66c-23.68,9.82-50.45,17.28-77.68,17.28s-53.45-8.78-77.13-18.6c-24.54-10.18-44.61-27.47-63.11-46s-34.5-39.1-44.68-63.65c-9.81-23.68-12.46-49.36-12.46-76.59v-.52a20.39,20.39,0,0,1,4.35,2.18c7,5.1,7.89,15.55,12.68,22.51,5.42,7.89,13.61,11.9,23.13,13s14.69,4.59,22.13,10.78c6.29,5.23,14.27,15,23.53,14v-.41c1.46,2.91,5.82,3.08,7,7.25,1.52,5.29-.55,10.94-1.88,16-.67,2.6-2.42,6-2.28,8.7s2,4.39,2.82,6.84c1.9,5.37,2,10.57,5.67,15.51,4.59,6.13,10.06,8,17.55,8,6.6,0,9.64,2.11,12.41,8.37,4.81,10.87,5.06,22.7,9.5,33.61,2.68,6.56,7.95,10.74,11.09,17,2,3.92,5.18,14.72,11.22,13.31l10.75,3.72a3.3,3.3,0,0,0,1.92-2.08c-6.67-5.11-16.1-13.74-10.94-23.45,2.62-4.93,8.71-8.21,12.3-12.34,4.16-4.79,5.19-10.95,8.49-16.09,2.59-4,4.92-6.3,9.45-7.23,4.29-.88,9.15-1.56,12.16-5.33,2.56-3.2,1.54-7.34,2.16-11.16.75-4.59,2.76-9.08,6.91-11.58,4.87-2.93,6.64-3.79,9.17-9.1,2.36-4.94,2.92-9.14-2-13.12-8.76-7.15-23.95-3.58-34-8.37-4.83-2.3-6.2-5.68-9-9.78-4.07-5.87-8-4.71-14.19-4.66-11.77.1-15.78-9.57-25.41-14-4.53-2.07-10.4-2.49-14.55-5.11-2.54-1.61-3.39-4.45-6.23-5.35-1.55-.5-4.18,0-5.76.34-4.23.83-7.36,3.82-11,5.82-2,1.1-6.05,4.49-8.31,4.14-.1-.42,0-.76-.06-1.18l-.83.83c-11.26-2.11-10.29-9.63-11.55-19-.6-4.4-1.65-8-5.8-9.41-2.57-.87-6.78-1.9-9.5-1.75V596c-5-2.26-10.47-3.65-15.17-6.39-6.35-3.69-5.66-7.37-6.94-13.86-1-5-1.88-9.49,3.21-12.39,4.69-2.69,11.07-1.48,15.24,1.77,4.39,3.43,4.53,9.07,8.57,12.82,10.74,10,11.72-5.32,12-12.83.45-10.31-2.09-22.11,3.79-31.32,3.31-5.19,9.94-7.89,14.62-11.69a68.72,68.72,0,0,1,13.55-8.92c4.67-2.28,8-4.5,9.32-9.8,1.13-4.6,1.52-8.37,7.19-10s9.19,3.3,14.28,3.4c3.71.07,9.63-2.07,11.41-5.29,3.11-5.64-2.26-10.65-4.77-15.35S676,466.71,672,462.83c-2-2-3.88-3.27-5.29-5.59-1-1.66-.83-3.06-2.63-4.43-2.44-1.85-7-2.74-9.86-1.79-4,1.36-6.19,5.88-9.47,8.29s-7.82,3.61-9.92,7.17-1.85,6.83-5.83,9.28c-3.22,2-6,2-9.47.39-1.42-.68-3.17-2.8-4.56-3-1.75-.3-2.05.92-3.64,1.13-4.09.55-7.42-.8-8.78-5a9.62,9.62,0,0,1,1.77-8.78c2.06-2.67,3.52-4.8,5.38-7.64,3.49-5.31,11-5.3,17-5.59,6.63-.32,15,2.22,19.73-4.12,1.85-2.48,1.07-3.84,1.64-6.64.47-2.32,2.09-4.21,1.62-6.79-1.53-8.43-10.77-4.92-15.75-3.2-7.4,2.54-13-.27-16.45-6.89-1.76-3.34-4.54-5.12-7.26-7.07,11.68-10,24.27-18.83,38.73-24.82,1.1-.46,2.21-.91,3.32-1.34a19.39,19.39,0,0,0,4.79,4.29c5.95,2.94,15.83,0,20.95,3.93,2.71,2.07,3.35,6.29,6,8.86,3.36,3.25,5.31,3.36,9.82,4.11,9.7,1.62,15.14,12.61,10.85,21.52-1.81,3.75-6.67,7-6.22,11.14.29,2.71,3.8,8.83,5.83,10.76,3.75,3.54,7.27,3.92,9.38,9.51,1.8,4.76,4.82,7.92,10.43,3.73,8.37-6.25-5.73-19.26,5.75-25.58,4.47-2.45,10.24-1.74,15-4.29s8.63-6.64,13.32-9.41c5.84-3.46,10-8.68,8.18-16-1.88-7.65-7.88-8.3-3.67-16.8,2.66-5.36,5.87-9.28,4.08-15.53,0,0,0,0,0-.06A253.26,253.26,0,0,1,803,388.64,289,289,0,0,1,839,406.18c-4.27,3.58-8.94,7-9.88,12.54-.86,5.11,5.16,7.5,4,13.19-1,5.18-4,10.15-5.18,15.31-1.09,4.57-1.26,10.61,2.77,13.72,4.27,3.31,9.53,0,14.4,1.65,5.23,1.82,7.62,10.39,14.12,8.94,8.46-1.89,2.62-11.92.84-16.46-2.34-6-4.13-10.08.74-14.9,3.77-3.74,7.57-5.59,12.92-4.54a8.2,8.2,0,0,1,2.89,1.16h0c1.14,1.34,2.23,2.69,3.3,4.08h0C882.2,446,881.57,453.45,880.11,458Z"/><path class="cls-12" d="M923,565.6c-3.06-1.46-4.48-2.94-7.24-6.44s-5.91-4.79-10.3-4.09c-6.14,1-5,4.26-9,7.65-9.33,7.77-15.58-6.55-20.67-12.13-2.84-3.13-3.92-8.6-7.2-11.06-3-2.28-7.09-.74-10.52-.56-4.66.24-8.48.67-9.11-4.27-.6-4.67,1.85-8.79,4.53-12.32s4.55-5.89,9.11-5.75a30.27,30.27,0,0,1,11.87,2.9c3.56,1.72,8,3.79,9.24,7.63.88,2.63-1,8.1.83,10.14,2.28,2.5,8.25-.71,10.28-2.37,3.12-2.57,3.13-5.6,2.93-9.64-.17-3.25-.54-7,.37-10.25,1.22-4.39,3.43-4.33,7.38-5.32,2.77-.69,5.55-1.23,8.26-2C919.85,526,922.46,545.25,923,565.6Z"/><path class="cls-13" d="M827.77,546.48c-1.21-4.66-7.21-6.26-10.17-9.58-5.12-5.74-1.25-21,7.76-20.18,4,.34,8.94,2.23,12-2.27,1.72-2.48.42-5.71-.85-8.16-4.33-8.39-13.41-15-1.17-21,6.68-3.26,10.7-1.89,16.92,1.13,6,2.92,9,3.12,15.32.74,5.07-1.91,8.8-4.86,9.4-10.34.76-6.86,1-12.24,3.1-18.86,1.46-4.56,2.09-12-.17-17.12,13,16.81,21.84,37.05,30.12,57q2,4.86,3.66,9.81c-2.71.77-5.49,1.31-8.26,2-4,1-6.16.93-7.38,5.32-.91,3.27-.54,7-.37,10.25.2,4,.19,7.07-2.93,9.64-2,1.66-8,4.87-10.28,2.37-1.86-2,0-7.51-.83-10.14-1.27-3.84-5.68-5.91-9.24-7.63a30.27,30.27,0,0,0-11.87-2.9c-4.56-.14-6.4,2.19-9.11,5.75s-5.13,7.65-4.53,12.32c.63,4.94,4.45,4.51,9.11,4.27,3.43-.18,7.49-1.72,10.52.56,3.28,2.46,4.36,7.93,7.2,11.06,5.09,5.58,11.34,19.9,20.67,12.13,4.08-3.39,2.9-6.67,9-7.65,4.39-.7,7.45.49,10.3,4.09s4.18,5,7.24,6.44h0c.07,2.8.11,5.61.11,8.46,0,27.23-4.55,51.93-14.36,75.61-10.18,24.54-21.32,48.62-39.81,67.12a231.17,231.17,0,0,1-24.23,21.14c-.36-4-1.44-7.89-2-11.84-1.26-9.58-1.22-17.33,1-26.84s12.65-12.86,14.93-22.12c2.61-10.64,2-23.16-.26-33.79-.6-2.87-.58-7.74-2.88-9.81s-7.7-2.21-10.31-1.16c-5.69,2.29-7.35,6.8-14.18,7.39-4.55.4-9.68.29-14-1.25-9.25-3.32-12.28-15.42-13.11-24.37-.68-7.36-2.25-16.95-.92-24.07,1.45-7.78,6.3-13.68,11.07-19.75a88.9,88.9,0,0,0,8.76-13.67"/><path class="cls-14" d="M844.71,737.94c-.36-4-1.44-7.89-2-11.84-1.26-9.58-1.22-17.33,1-26.84s12.65-12.86,14.93-22.12c2.61-10.64,2-23.16-.26-33.79-.6-2.87-.58-7.74-2.88-9.81s-7.7-2.21-10.31-1.16c-5.69,2.29-7.35,6.8-14.18,7.39-4.55.4-9.68.29-14-1.25-9.25-3.32-12.28-15.42-13.11-24.37-.68-7.36-2.25-16.95-.92-24.07,1.45-7.78,6.3-13.68,11.07-19.75a88.9,88.9,0,0,0,8.76-13.67"/><path class="cls-14" d="M913.72,507.72c-2.71.77-5.49,1.31-8.26,2-4,1-6.16.93-7.38,5.32-.91,3.27-.54,7-.37,10.25.2,4,.19,7.07-2.93,9.64-2,1.66-8,4.87-10.28,2.37-1.86-2,0-7.51-.83-10.14-1.27-3.84-5.68-5.91-9.24-7.63a30.27,30.27,0,0,0-11.87-2.9c-4.56-.14-6.4,2.19-9.11,5.75s-5.13,7.65-4.53,12.32c.63,4.94,4.45,4.51,9.11,4.27,3.43-.18,7.49-1.72,10.52.56,3.28,2.46,4.36,7.93,7.2,11.06,5.09,5.58,11.34,19.9,20.67,12.13,4.08-3.39,2.9-6.67,9-7.65,4.39-.7,7.45.49,10.3,4.09s4.18,5,7.24,6.44"/><path class="cls-14" d="M827.77,546.48c-1.21-4.66-7.21-6.26-10.17-9.58-5.12-5.74-1.25-21,7.76-20.18,4,.34,8.94,2.23,12-2.27,1.72-2.48.42-5.71-.85-8.16-4.33-8.39-13.41-15-1.17-21,6.68-3.26,10.7-1.89,16.92,1.13,6,2.92,9,3.12,15.32.74,5.07-1.91,8.8-4.86,9.4-10.34.76-6.86,1-12.24,3.1-18.86,1.46-4.56,2.09-12-.17-17.12"/><path class="cls-15" d="M750.14,675.69c-2.53,5.31-4.3,6.17-9.17,9.1-4.15,2.5-6.16,7-6.91,11.58-.62,3.82.4,8-2.16,11.16-3,3.77-7.87,4.45-12.16,5.33-4.53.93-6.86,3.21-9.45,7.23-3.3,5.14-4.33,11.3-8.49,16.09-3.59,4.13-9.68,7.41-12.3,12.34-5.16,9.71,4.27,18.34,10.94,23.45a3.3,3.3,0,0,1-1.92,2.08l-10.75-3.72c-6,1.41-9.26-9.39-11.22-13.31-3.14-6.28-8.41-10.46-11.09-17-4.44-10.91-4.69-22.74-9.5-33.61-2.77-6.26-5.81-8.35-12.41-8.37-7.49,0-13-1.92-17.55-8-3.7-4.94-3.77-10.14-5.67-15.51-.86-2.45-2.67-4.18-2.82-6.84s1.61-6.1,2.28-8.7c1.33-5.1,3.4-10.75,1.88-16-1.21-4.17-5.57-4.34-7-7.25V636c-9.26.92-17.24-8.81-23.53-14-7.44-6.19-12.65-9.71-22.13-10.78s-17.71-5.09-23.13-13c-4.79-7-5.66-17.41-12.68-22.51a20.39,20.39,0,0,0-4.35-2.18c0-27-.43-53.85,9.33-77.38,10.18-24.54,30.15-43,48.65-61.51,7.6-7.6,15.31-15.17,23.47-22.16,2.72,1.95,5.5,3.73,7.26,7.07,3.5,6.62,9.05,9.43,16.45,6.89,5-1.72,14.22-5.23,15.75,3.2.47,2.58-1.15,4.47-1.62,6.79-.57,2.8.21,4.16-1.64,6.64-4.74,6.34-13.1,3.8-19.73,4.12-6,.29-13.56.28-17,5.59-1.86,2.84-3.32,5-5.38,7.64a9.62,9.62,0,0,0-1.77,8.78c1.36,4.23,4.69,5.58,8.78,5,1.59-.21,1.89-1.43,3.64-1.13,1.39.23,3.14,2.35,4.56,3,3.42,1.64,6.25,1.59,9.47-.39,4-2.45,3.73-5.72,5.83-9.28s6.7-4.79,9.92-7.17,5.43-6.93,9.47-8.29c2.84-.95,7.42-.06,9.86,1.79,1.8,1.37,1.62,2.77,2.63,4.43,1.41,2.32,3.26,3.62,5.29,5.59,4,3.88,3.74,8.56,6.28,13.31s7.88,9.71,4.77,15.35c-1.78,3.22-7.7,5.36-11.41,5.29-5.09-.1-8.51-5-14.28-3.4s-6.06,5.38-7.19,10c-1.31,5.3-4.65,7.52-9.32,9.8a68.72,68.72,0,0,0-13.55,8.92c-4.68,3.8-11.31,6.5-14.62,11.69-5.88,9.21-3.34,21-3.79,31.32-.33,7.51-1.31,22.8-12,12.83-4-3.75-4.18-9.39-8.57-12.82-4.17-3.25-10.55-4.46-15.24-1.77-5.09,2.9-4.18,7.41-3.21,12.39,1.28,6.49.59,10.17,6.94,13.86,4.7,2.74,10.19,4.13,15.17,6.39v-.83c2.72-.15,6.93.88,9.5,1.75,4.15,1.41,5.2,5,5.8,9.41,1.26,9.37.29,16.89,11.55,19l.83-.83c.07.42,0,.76.06,1.18,2.26.35,6.28-3,8.31-4.14,3.69-2,6.82-5,11-5.82,1.58-.32,4.21-.84,5.76-.34,2.84.9,3.69,3.74,6.23,5.35,4.15,2.62,10,3,14.55,5.11,9.63,4.38,13.64,14.05,25.41,14,6.17,0,10.12-1.21,14.19,4.66,2.84,4.1,4.21,7.48,9,9.78,10,4.79,25.22,1.22,34,8.37C753.06,666.55,752.5,670.75,750.14,675.69Z"/><path class="cls-16" d="M610.27,412.5c2.72,1.95,5.5,3.73,7.26,7.07,3.5,6.62,9.05,9.43,16.45,6.89,5-1.72,14.22-5.23,15.75,3.2.47,2.58-1.15,4.47-1.62,6.79-.57,2.8.21,4.16-1.64,6.64-4.74,6.34-13.1,3.8-19.73,4.12-6,.29-13.56.28-17,5.59-1.86,2.84-3.32,5-5.38,7.64a9.62,9.62,0,0,0-1.77,8.78c1.36,4.23,4.69,5.58,8.78,5,1.59-.21,1.89-1.43,3.64-1.13,1.39.23,3.14,2.35,4.56,3,3.42,1.64,6.25,1.59,9.47-.39,4-2.45,3.73-5.72,5.83-9.28s6.7-4.79,9.92-7.17,5.43-6.93,9.47-8.29c2.84-.95,7.42-.06,9.86,1.79,1.8,1.37,1.62,2.77,2.63,4.43,1.41,2.32,3.26,3.62,5.29,5.59,4,3.88,3.74,8.56,6.28,13.31s7.88,9.71,4.77,15.35c-1.78,3.22-7.7,5.36-11.41,5.29-5.09-.1-8.51-5-14.28-3.4s-6.06,5.38-7.19,10c-1.31,5.3-4.65,7.52-9.32,9.8a68.72,68.72,0,0,0-13.55,8.92c-4.68,3.8-11.31,6.5-14.62,11.69-5.88,9.21-3.34,21-3.79,31.32-.33,7.51-1.31,22.8-12,12.83-4-3.75-4.18-9.39-8.57-12.82-4.17-3.25-10.55-4.46-15.24-1.77-5.09,2.9-4.18,7.41-3.21,12.39,1.28,6.49.59,10.17,6.94,13.86,4.7,2.74,10.19,4.13,15.17,6.39v-.83c2.72-.15,6.93.88,9.5,1.75,4.15,1.41,5.2,5,5.8,9.41,1.26,9.37.29,16.89,11.55,19l.83-.83c.07.42,0,.76.06,1.18,2.26.35,6.28-3,8.31-4.14,3.69-2,6.82-5,11-5.82,1.58-.32,4.21-.84,5.76-.34,2.84.9,3.69,3.74,6.23,5.35,4.15,2.62,10,3,14.55,5.11,9.63,4.38,13.64,14.05,25.41,14,6.17,0,10.12-1.21,14.19,4.66,2.84,4.1,4.21,7.48,9,9.78,10,4.79,25.22,1.22,34,8.37,4.88,4,4.32,8.18,2,13.12-2.53,5.31-4.3,6.17-9.17,9.1-4.15,2.5-6.16,7-6.91,11.58-.62,3.82.4,8-2.16,11.16-3,3.77-7.87,4.45-12.16,5.33-4.53.93-6.86,3.21-9.45,7.23-3.3,5.14-4.33,11.3-8.49,16.09-3.59,4.13-9.68,7.41-12.3,12.34-5.16,9.71,4.27,18.34,10.94,23.45a3.3,3.3,0,0,1-1.92,2.08l-10.75-3.72c-6,1.41-9.26-9.39-11.22-13.31-3.14-6.28-8.41-10.46-11.09-17-4.44-10.91-4.69-22.74-9.5-33.61-2.77-6.26-5.81-8.35-12.41-8.37-7.49,0-13-1.92-17.55-8-3.7-4.94-3.77-10.14-5.67-15.51-.86-2.45-2.67-4.18-2.82-6.84s1.61-6.1,2.28-8.7c1.33-5.1,3.4-10.75,1.88-16-1.21-4.17-5.57-4.34-7-7.25V636c-9.26.92-17.24-8.81-23.53-14-7.44-6.19-12.65-9.71-22.13-10.78s-17.71-5.09-23.13-13c-4.79-7-5.66-17.41-12.68-22.51a20.39,20.39,0,0,0-4.35-2.18"/><path class="cls-15" d="M766.4,408.89c1.81,7.34-2.34,12.56-8.18,16-4.69,2.77-8.42,6.79-13.32,9.41s-10.54,1.84-15,4.29c-11.48,6.32,2.62,19.33-5.75,25.58-5.61,4.19-8.63,1-10.43-3.73-2.11-5.59-5.63-6-9.38-9.51-2-1.93-5.54-8.05-5.83-10.76-.45-4.13,4.41-7.39,6.22-11.14,4.29-8.91-1.15-19.9-10.85-21.52-4.51-.75-6.46-.86-9.82-4.11-2.64-2.57-3.28-6.79-6-8.86-5.12-3.93-15-1-20.95-3.93a19.39,19.39,0,0,1-4.79-4.29c22.8-9.07,47.92-15,73.88-15a169.35,169.35,0,0,1,40.59,5.19s0,0,0,.06c1.79,6.25-1.42,10.17-4.08,15.53C758.52,400.59,764.52,401.24,766.4,408.89Z"/><path class="cls-16" d="M766.81,376.56c1.79,6.25-1.42,10.17-4.08,15.53-4.21,8.5,1.79,9.15,3.67,16.8,1.81,7.34-2.34,12.56-8.18,16-4.69,2.77-8.42,6.79-13.32,9.41s-10.54,1.84-15,4.29c-11.48,6.32,2.62,19.33-5.75,25.58-5.61,4.19-8.63,1-10.43-3.73-2.11-5.59-5.63-6-9.38-9.51-2-1.93-5.54-8.05-5.83-10.76-.45-4.13,4.41-7.39,6.22-11.14,4.29-8.91-1.15-19.9-10.85-21.52-4.51-.75-6.46-.86-9.82-4.11-2.64-2.57-3.28-6.79-6-8.86-5.12-3.93-15-1-20.95-3.93a19.39,19.39,0,0,1-4.79-4.29"/><path class="cls-17" d="M876.62,436.79a8.2,8.2,0,0,0-2.89-1.16c-5.35-1.05-9.15.8-12.92,4.54-4.87,4.82-3.08,8.91-.74,14.9,1.78,4.54,7.62,14.57-.84,16.46-6.5,1.45-8.89-7.12-14.12-8.94-4.87-1.69-10.13,1.66-14.4-1.65-4-3.11-3.86-9.15-2.77-13.72,1.22-5.16,4.17-10.13,5.18-15.31,1.11-5.69-4.91-8.08-4-13.19.94-5.52,5.61-9,9.88-12.54"/><path class="cls-2" d="M442.83,276.53l-142.24,147A14.55,14.55,0,0,0,303.34,446c.37.22.74.43,1.14.63A14.5,14.5,0,0,0,321.32,444L474,293.51"/><circle class="cls-4" cx="478.06" cy="580.09" r="14.93"/><circle class="cls-3" cx="1008.64" cy="415.77" r="35.26"/><circle class="cls-4" cx="884.69" cy="323.52" r="14.73"/><circle class="cls-4" cx="702.29" cy="306.85" r="15.33"/><path class="cls-10" d="M319.7,135.07c25.57,22.85,41,41.29,37.29,46.1-5.21,6.78-46.6-16.26-92.44-51.46s-78.79-69.25-73.58-76c3.78-4.92,26.6,5.85,56.35,25.58"/><path class="cls-9" d="M487,203.46a53.28,53.28,0,1,0,53.29,53.28A53.28,53.28,0,0,0,487,203.46Zm0,84.41a31.13,31.13,0,1,1,31.13-31.13A31.13,31.13,0,0,1,487,287.87Z"/><path class="cls-10" d="M351.89,321.51s-136.26,84.93-170.41,284"/><path class="cls-18" d="M672.83,273.47c7,0,7-10.94,0-10.94s-7.05,10.94,0,10.94Z"/><path class="cls-18" d="M433.69,598.75c7,0,7.05-10.94,0-10.94s-7.05,10.94,0,10.94Z"/><path class="cls-18" d="M782.13,256.55c7,0,7-10.94,0-10.94s-7,10.94,0,10.94Z"/><path class="cls-18" d="M782.13,299.72c7,0,7-10.94,0-10.94s-7,10.94,0,10.94Z"/><path class="cls-18" d="M433.69,92c7,0,7.05-10.94,0-10.94S426.64,92,433.69,92Z"/><path class="cls-18" d="M392.22,575.94c7,0,7-10.94,0-10.94s-7.05,10.94,0,10.94Z"/><path class="cls-18" d="M385.21,131.19c7,0,7.05-10.94,0-10.94s-7,10.94,0,10.94Z"/><path class="cls-18" d="M181.48,187.82c7,0,7.05-10.94,0-10.94s-7,10.94,0,10.94Z"/><circle class="cls-4" cx="486.97" cy="256.74" r="31"/><path class="cls-10" d="M437.49,276.53s5.1,21.67,30.82,30.83"/><path class="cls-4" d="M262.53,699c1.89,34,97.58,193.31,283.35,71.79"/><path class="cls-4" d="M238.92,758.14c-21-36.73-37.27-123.1,14.16-215.91"/></svg>