<svg id="Layer_1" data-name="Layer 1" xmlns="http://www.w3.org/2000/svg" viewBox="0 0 1150.64 862.98"><defs><style>.cls-1,.cls-8{fill:#00ac43;}.cls-2{fill:#f9000a;}.cls-12,.cls-3{fill:#00aff4;}.cls-4,.cls-9{fill:#fff;}.cls-5{fill:#231f20;}.cls-6{fill:none;}.cls-10,.cls-12,.cls-6,.cls-8,.cls-9{stroke:#231f20;stroke-linecap:round;stroke-linejoin:round;stroke-width:8.75px;}.cls-7{fill:#fff9a3;}.cls-10,.cls-11{fill:#ff5d10;}</style></defs><path class="cls-1" d="M695.62,698.48c1.62,10.85,5.09,25.81,12.47,37.62a75.34,75.34,0,0,1,4.73,8.78H642.59a11,11,0,0,0-3.53-6.84c-9.8-8.94-26.52-26.37-26-40.87.39-11,3.81-16.75,6.91-19.77a65.56,65.56,0,0,0,16.21-4.77c30.1-13.35,75-54.89,60.22-126A67.35,67.35,0,0,1,713.94,561a148.71,148.71,0,0,1,9.6,12.5c22.41,32.81,14.63,86.28-17.16,110.12l-1.55,1.16C697.87,690,694.32,689.88,695.62,698.48Z"/><path class="cls-2" d="M402.15,542.07c-71.27,74.43-140,16.21-140,16.21-27-41.2-32-93-32.53-120.72-.08-4-.07-7.44,0-10.31a131.52,131.52,0,0,1-24.15-8h0c-14.83-6.74-27.16-16.83-36.11-32.94a99.09,99.09,0,0,1-7.25-16.55c4.11-17.76,14.48-39.93,39.16-59.53,1.32,2.3,2.73,4.69,4.22,7.14C231.4,360.07,283.89,423,361,405c-2.91,14.82-5.76,44.76,12.23,66.44a54.65,54.65,0,0,1-8,1.27S389.79,506.79,402.15,542.07Z"/><path class="cls-1" d="M465.69,378.39c-24,63.33-63.33,84.21-85,91.06l-1.21.37c-2.35.71-4.47,1.25-6.31,1.66-18-21.68-15.14-51.62-12.23-66.44,1.37-.31,2.75-.66,4.14-1a146.41,146.41,0,0,0,22.29-8C427.82,377.81,451.83,374.41,465.69,378.39Z"/><path class="cls-1" d="M629.71,664.28c-5,20.94-24,29.22-36.17,32.43a14.29,14.29,0,0,0-10.42,16.07,76.19,76.19,0,0,0,3.62,13.63c2.26,6.29,4.12,12.44,6,18.35l-72.07-3.7A36.9,36.9,0,0,0,517,726.55c-8.45-18.83-19.16-34.53-21.55-47.07a34,34,0,0,1,30.27-40.07l23-2.18Z"/><path class="cls-3" d="M222.69,708.14c-8.77,38-48.24,24.86-48.24,24.86-29.32-6.64-43.15-16.1-49.58-24.18a11.3,11.3,0,0,1,6.27-18.06,110.48,110.48,0,0,0,44.06-21.29,20.31,20.31,0,0,0,6.57-9.57Z"/><path class="cls-3" d="M402.89,780.26c-18.74,15.53-60.82,17.8-80.78,17.8-22.66,0-20.47-13.89-13.88-17.54,3.8-2.13,14.46-10.12,22.77-16.47a10.84,10.84,0,0,0,2.92-3.37l45.6-52.54c5,7.32,10.13,14.56,14.23,21.2,9.45,15.29,13.08,28.37,14.48,36.17A15.57,15.57,0,0,1,402.89,780.26Z"/><path class="cls-4" d="M338.33,748.93a15.22,15.22,0,0,0-4-5.32c-4.18-3.56-8.9-6.92-13.9-10.48-12.48-8.87-25.37-18-28.41-29.74-3.5-13.48,4.4-27.41,12-40.89,2.43-4.29,4.73-8.35,6.68-12.41.08-.15.17-.34.26-.55a15.41,15.41,0,0,0-1-15,15.73,15.73,0,0,0-13.28-7.35,16.26,16.26,0,0,0-5.18.86,58.57,58.57,0,0,1-18.85,2.83c-2.07,0-4.21-.08-6.37-.25-.82-.07-1.65-.1-2.47-.1a31.24,31.24,0,0,0-29.39,20.6c-5.69,15.87-11.08,36.32-13.91,47.6l-33.89-40A24,24,0,0,0,187,651c-3.62-32.25,1-55.16,5.45-68.69a28.61,28.61,0,0,1,27.25-19.62h41c5.8,4.5,30.12,21.67,63.24,21.67,27.14,0,52.79-11.47,76.34-34.11,3,9.84,4.48,18.68,4.52,26.37.19,37.53-17.22,54.68-31.21,68.47-4.53,4.46-8.81,8.68-11.87,13.07-9.45,13.6.49,31.85,12.37,49.68Z"/><path class="cls-5" d="M397.88,558.31a81,81,0,0,1,2.47,18.29c.18,35.68-16.5,52.12-29.9,65.33-4.68,4.61-9.1,9-12.39,13.7-11,15.85.7,36.94,10.47,51.82l-29.8,34.34a20.68,20.68,0,0,0-1.59-1.51c-4.32-3.68-9.35-7.26-14.21-10.71-11.83-8.42-24.07-17.12-26.7-27.28-3.06-11.77,4.39-24.92,11.6-37.63,2.35-4.15,4.78-8.44,6.79-12.62.11-.22.21-.44.31-.67a20.17,20.17,0,0,0-18.29-28.53h0a20.51,20.51,0,0,0-6.58,1.1,54.4,54.4,0,0,1-17.44,2.59c-2,0-4-.08-6-.23-.93-.08-1.88-.11-2.81-.11a35.62,35.62,0,0,0-33.51,23.49c-4.54,12.68-8.89,28.23-11.92,39.8l-27.1-31.94a28.81,28.81,0,0,0,.08-7.07c-3.53-31.46.9-53.71,5.25-66.83A24.25,24.25,0,0,1,219.67,567h39.5c7.85,5.81,32.25,21.67,64.7,21.67,26.25,0,51.09-10.22,74-30.39m4.27-16.24C374.36,571.09,347,580,323.87,580c-36.13,0-61.7-21.67-61.7-21.67h-42.5a33,33,0,0,0-31.41,22.61c-5.06,15.3-9.23,38.58-5.64,70.55a20.22,20.22,0,0,1-.85,8.46l40.92,48.24s7.68-32.82,15.81-55.51a26.74,26.74,0,0,1,25.27-17.69c.71,0,1.42,0,2.13.08,2.13.16,4.38.26,6.71.26a63.5,63.5,0,0,0,20.26-3A11.38,11.38,0,0,1,307,647.78c-.06.14-.12.28-.19.42-8.2,17-24.13,36.55-19,56.29,4.71,18.2,28.89,29.83,43.71,42.45a10.9,10.9,0,0,1,3.85,8.61,1.3,1.3,0,0,0,1.32,1.33,1.28,1.28,0,0,0,1-.45l41.91-48.29c-11.88-17.55-22.53-35.65-14.28-47.52,11.7-16.81,44.13-32.16,43.86-84.07-.06-10.82-2.83-22.72-7-34.48Z"/><path class="cls-1" d="M201.26,310.26c-24.68,19.6-35,41.77-39.16,59.53a143.15,143.15,0,0,1-5.21-20.42c-9.91-54,2.81-84.54,14.91-100.51l15,32.36A261.61,261.61,0,0,0,201.26,310.26Z"/><path class="cls-6" d="M256.41,548.73s13.8,29.29,29.88,49.76"/><path class="cls-6" d="M318.6,469.4s30.46,8.47,60.92.42"/><line class="cls-6" x1="634.26" y1="552.73" x2="652.54" y2="533.43"/><path class="cls-6" d="M648.88,457.4s23,18.57,15.9,62.65"/><path class="cls-3" d="M931.76,472.14l10.6-10.58,37.26,48.13-38.39,29.59-38,29.26-.1.06c-2.79,1.65-56.57,32.61-71.52-29.32h28.68a17.7,17.7,0,0,0,16.16-10.23,26.63,26.63,0,0,1,6.33-9c6-5.33,27.48-26.5,48.76-47.73"/><path class="cls-7" d="M1057.81,543.08c-71.19,44.44-116.58-3.8-116.58-3.8l38.39-29.59-37.26-48.13-10.6,10.58L900,429.55l47.93-49.4a41.66,41.66,0,0,0,61.3-3.58c17.74,17.26,37.2,41.8,42.44,69.86C1058.19,481.32,1061.74,510.58,1057.81,543.08Z"/><path class="cls-2" d="M1057.81,543.08c-2.24,18.57-6.94,38.2-14.91,60.52-13.29,37.21-29.52,91.58-40.26,128.66-29.54-21-67.36-14.61-67.36-14.61,4.16-11.14,5.09-48.9,5.27-71.08.05-6.15-2.14-3.14-6.48,1.21l-95.86,84.48c11.7-40.93-14.61-65.79-14.61-65.79,2.9-3.62,78.48-96.48,79.66-97.93l38-29.26S986.62,587.52,1057.81,543.08Z"/><path class="cls-3" d="M931.57,472.32c-21.28,21.23-42.72,42.4-48.76,47.73a26.63,26.63,0,0,0-6.33,9,17.7,17.7,0,0,1-16.16,10.23H834.57a2.37,2.37,0,0,1-2.31-2.87l10.35-47.69L899,430.59l.47-.49C909.85,444,922.86,461,931.57,472.32Z"/><path class="cls-6" d="M931.76,472.14a1.57,1.57,0,0,1-.19.18"/><path class="cls-6" d="M876.48,526.43C897.07,505.87,980.77,423,980.77,423"/><line class="cls-6" x1="942.08" y1="461.84" x2="976.95" y2="507.84"/><line class="cls-6" x1="1031.94" y1="469.4" x2="979.62" y2="509.69"/><line class="cls-6" x1="898.99" y1="430.6" x2="929.64" y2="474.26"/><path class="cls-7" d="M169.49,205.67a99.51,99.51,0,0,1,.31,35.6c-2.9,16.87-4.54,42.5,4.65,67.3C189.79,350,309.83,487.05,421.36,407.25A18,18,0,0,1,433.63,404c10.7,1.1,31.57,1.9,43.3-6.54,16.24-11.7,36.06-31.2,43.7-32.17s14.45,2.92,14.45,2.92S576,451.33,577,488.72c0,0,41.35,72.29,89.15,72.29,0,0,47-20.71,46.67-41s5.51-48.7,5.51-48.7,34.11-7.35,54.58,17.37v12a14.76,14.76,0,0,0,9.67,13.86L794.35,519v.69a14.77,14.77,0,0,0,13.74,14.73l57.74,4A12.85,12.85,0,0,0,879.5,527l44.09-412a12.84,12.84,0,0,0-11.43-14.14l-58.83-6.16a16.25,16.25,0,0,0-16.73,10l-5,12.12-1-.11a16.25,16.25,0,0,0-18,13.94L809,157.68S775.84,183,764.14,164.5l-12-44.23a30.86,30.86,0,0,0-23.64-22.21c-23.51-4.71-59-6.13-72.53.16-14.16,6.56-51.32,49.33-71.77,73.71a47.42,47.42,0,0,1-36.31,16.94h-1.21a13,13,0,0,1-10.18-4.94c-5-6.31-13.05-17-15-22.35-2.93-7.8-35.58-35.58-55.56-27.78,0,0-19.87-32.68-67.18-26.15a34.59,34.59,0,0,1-22.41-4.32,23.26,23.26,0,0,1-7.39-6.57c-6.34-9.26-53.12-33.14-112.09-15.59s-92.11,61.89-89.29,111.11A95.86,95.86,0,0,0,169.49,205.67Z"/><line class="cls-6" x1="603.35" y1="149.55" x2="702.98" y2="299.5"/><line class="cls-6" x1="590.6" y1="423.04" x2="779" y2="214.7"/><path class="cls-6" d="M764.14,164.5l19.43,59.33A70,70,0,0,1,787,245.59v9a9.5,9.5,0,0,1-5.63,8.69h0a9.51,9.51,0,0,0-5.63,9c.53,18.44,1.81,71.92-.19,92.34,0,.35-.07.7-.1,1a99.55,99.55,0,0,1-17.25,46.57c-11,15.85-26.54,41.1-27.48,58.16"/><line class="cls-6" x1="866.6" y1="96.01" x2="816.29" y2="533.43"/><line class="cls-6" x1="831.64" y1="116.74" x2="794.35" y2="519.65"/><line class="cls-6" x1="808.97" y1="157.68" x2="806.35" y2="199.13"/><line class="cls-6" x1="772.91" y1="488.72" x2="782.37" y2="427.26"/><line class="cls-6" x1="629.71" y1="120.76" x2="692.74" y2="237.36"/><line class="cls-6" x1="669.35" y1="139.4" x2="734.97" y2="263.39"/><line class="cls-6" x1="684.8" y1="94.01" x2="740.99" y2="214.7"/><line class="cls-6" x1="621.1" y1="452.43" x2="776.02" y2="281.22"/><line class="cls-6" x1="698.56" y1="447.16" x2="776.02" y2="344.82"/><path class="cls-6" d="M536.48,183.93S554.58,199.13,567,211c8,7.73,17.53,35.09,16.81,52.35-.35,8.42-6.78,16.24-6.58,24.41.43,17.36,3.66,38.75-20.47,50.44s-44.54,31.28-44.54,31.28"/><path class="cls-6" d="M556.25,201.4s64.57,4.47,76-8.29"/><path class="cls-6" d="M535.08,368.21s51.66.74,75.79,13.16"/><path class="cls-6" d="M584.41,373.61c1.32,7.52,5.62,23.33,18.94,29.5"/><path class="cls-6" d="M521.54,276.13a77.1,77.1,0,0,0,2.15-44.28c-1.27-4.95-4.83-8.13-8.67-7.72-5.31.58-12.27,2.69-13.46,9.71-1,5.9,1.75,11.12,4.68,14.82,1.71,2.15.91,6-1.37,6.61-4.25,1.2-8.86,4-9.21,10.3-.42,7.66,8.8,13.42,15.47,16.56C515.21,284.06,519.69,281.44,521.54,276.13Z"/><path class="cls-6" d="M458.08,179.06s12.67-21.06,7.8-45.26"/><path class="cls-6" d="M364.84,221.68l2.92,18.2s36.9-5.1,64.32-6.92a18.93,18.93,0,0,1,20.16,18.89h0a6.54,6.54,0,0,0,6.54,6.55h.1a11.28,11.28,0,0,0,11.24-10.54c.6-8.64,2.19-19.48,6.48-19.68h.22a15.11,15.11,0,0,0,14.4-15.11v-2a8.29,8.29,0,0,0-7.71-8.27C462.5,201.35,403.31,199.55,364.84,221.68Z"/><path class="cls-6" d="M381.73,125.51l-12.34,67.6s34.11,3.56,36.06-27.63"/><path class="cls-6" d="M363.21,330.2l4.23-66.81s30.21,8.12,29.89,33.4"/><path class="cls-6" d="M420.72,383.48c.32-1.29,32-35.87,20.47-82.19"/><path class="cls-6" d="M242.35,227.21s58.28,45.31,26.87,139.62"/><path class="cls-6" d="M323.58,386.31S354.5,286.94,277,200.09"/><path class="cls-6" d="M202.71,202.16S172,215.63,170.8,233.68"/><path class="cls-6" d="M199.3,179.06s65.79-22.36,57.51-97.89"/><path class="cls-6" d="M252.42,179.06S322.14,153,313.84,75.65"/><path class="cls-6" d="M303.35,199.31s66-20.25,61.49-108.4"/><path class="cls-6" d="M334.21,403.11s39.56,30.41,74.77,12.1"/><circle class="cls-1" cx="240.97" cy="397.46" r="41.67"/><path class="cls-8" d="M267.38,429.69a41.67,41.67,0,0,1-61-55.53"/><path class="cls-9" d="M636.18,672.63A65.56,65.56,0,0,1,620,677.4c-29.05,4.72-56.65-14.47-71-34.94-22-31.43-13.93-62.51-19.65-109-5.54-45.09-2.56-47.52-2.56-47.52s19.11-4.2,46.39.83A72,72,0,0,0,630,473.2l.9-.69c4.23-3.25,8.51-6.46,12.9-9.51,17.59,5.63,31.35,26.61,30.41,52.16h0a18.63,18.63,0,0,0,9.94,25.48c2.1.83,4.24,1.75,6.37,2.79l.06,0a12.72,12.72,0,0,1,7,9.48C708.51,620.23,665.37,659.69,636.18,672.63Z"/><path class="cls-10" d="M743.91,442.78a108.4,108.4,0,0,1-12.11,20.71,138.23,138.23,0,0,1-35.07,33.23c-4.75,3.15-10.7,7.2-16.7,11.54a18.57,18.57,0,0,0-5.85,6.9c.94-25.55-12.82-46.53-30.41-52.16a156.38,156.38,0,0,1,25-14.59c39.31-17.82,39.86-22.51,56.41-41.8a9.91,9.91,0,0,1,15.86,1C746.14,415.6,750.36,427.85,743.91,442.78Z"/><line class="cls-6" x1="642.59" y1="744.88" x2="642.58" y2="744.88"/><circle class="cls-11" cx="544.81" cy="502.33" r="41.67"/><path class="cls-6" d="M558.31,462.9a41.67,41.67,0,1,1-36.24,74.35"/><path class="cls-6" d="M680,508.26S653.51,532.37,648.88,558"/><path class="cls-9" d="M586.35,777.3c-22.3,9.52-50.31,13.82-69.53,11.55-24.86-2.92-27.05-9.8-19.74-18.58,3.53-4.23,11.14-10.87,18-16.6,4-3.32,5.53-7.78,5.5-12.61l72.07,3.7c1.11,3.62,2.22,7.15,3.4,10.56A17.62,17.62,0,0,1,586.35,777.3Z"/><path class="cls-9" d="M709.22,780c-14.63,5.07-43.78,12.44-74.93,5a11.91,11.91,0,0,1-5-20.62l.38-.32a68.21,68.21,0,0,0,10.74-11.2,10.91,10.91,0,0,0,2.14-8h70.23a71.88,71.88,0,0,1,5.79,19.78A14.23,14.23,0,0,1,709.22,780Z"/><path class="cls-6" d="M941.23,539.28s47.33,49,116.58,3.8"/><path class="cls-3" d="M1018.61,350.24a41.67,41.67,0,1,1-41.67-41.66A41.48,41.48,0,0,1,1018.61,350.24Z"/><path class="cls-12" d="M1009.24,376.57a41.66,41.66,0,0,1-61.3,3.58"/><path class="cls-11" d="M838.21,732.26,812,758.49a8.61,8.61,0,0,1-13.71-2.09c-10.1-19.25-30.3-61.5-29.2-89.43a11,11,0,0,1,17.36-8.68,39.84,39.84,0,0,1,7.91,7.45c15.35,18.27,26.32,4.39,29.25.73C823.6,666.47,849.91,691.33,838.21,732.26Z"/><path class="cls-11" d="M1002.64,732.26c-2.88,10-5.38,18.71-7.3,25.51a22.08,22.08,0,0,1-20.41,16l-69,2.62a11.21,11.21,0,0,1-10.7-15.74,14.13,14.13,0,0,1,7.37-7.23c13.16-5.85,26.72-19.74,32.73-35.81C935.28,717.65,973.1,711.31,1002.64,732.26Z"/><path class="cls-6" d="M812,758.49a8.61,8.61,0,0,1-13.71-2.09c-10.1-19.25-30.3-61.5-29.2-89.43"/><path class="cls-6" d="M823.6,666.47s26.31,24.86,14.61,65.79"/><path class="cls-6" d="M935.28,717.65s37.82-6.34,67.36,14.61"/><path class="cls-6" d="M153.82,302.86S144.53,391,205.46,419.28"/><polyline class="cls-6" points="161.46 674.71 170.55 688.03 149.76 681.85 156.26 691.93 139.69 687.38"/><path class="cls-6" d="M329.43,760.48l4.87,13.32S322,768.6,322,769.58s1.62,8.12,1.62,8.12l-10.4-1.3"/><line class="cls-6" x1="899.95" y1="778.02" x2="981.86" y2="778.02"/><path class="cls-6" d="M124.87,708.82s26.51,29.24,76.22,24.37"/><path class="cls-6" d="M312.21,796.54S362,801,402.89,780.26"/><path class="cls-6" d="M665.05,667.62s-94.38,4.86-26,70.42"/><line class="cls-6" x1="923.59" y1="114.92" x2="879.5" y2="526.97"/></svg>